<svg width="20" height="20" viewBox="0 0 20 20" fill="none" xmlns="http://www.w3.org/2000/svg">
<path opacity="0.14" d="M5.09085 2.95501C5.00002 3.13327 5.00002 3.36662 5.00002 3.83333C5.00002 8.38889 5 17.5 5 17.5H8.33335V15C8.33335 14.0795 9.07954 13.3333 10 13.3333C10.9205 13.3333 11.6667 14.0795 11.6667 15V17.5H15V3.83333C15 3.36662 15 3.13327 14.9092 2.95501C14.8293 2.79821 14.7018 2.67072 14.545 2.59083C14.3668 2.5 14.1334 2.5 13.6667 2.5H6.33335C5.86664 2.5 5.63328 2.5 5.45503 2.59083C5.29822 2.67072 5.17074 2.79821 5.09085 2.95501Z" fill="#61646B"/>
<path d="M15 17.5V18.25C15.4142 18.25 15.75 17.9142 15.75 17.5H15ZM5 17.5H4.25C4.25 17.9142 4.58579 18.25 5 18.25V17.5ZM14.545 2.59083L14.2045 3.25908L14.545 2.59083ZM14.9092 2.95501L14.2409 3.2955V3.2955L14.9092 2.95501ZM5.45501 2.59083L5.7955 3.25908L5.45501 2.59083ZM5.09083 2.95501L5.75908 3.2955L5.09083 2.95501ZM7.5 5.08333C7.08579 5.08333 6.75 5.41912 6.75 5.83333C6.75 6.24755 7.08579 6.58333 7.5 6.58333V5.08333ZM8.33333 6.58333C8.74755 6.58333 9.08333 6.24755 9.08333 5.83333C9.08333 5.41912 8.74755 5.08333 8.33333 5.08333V6.58333ZM7.5 7.58333C7.08579 7.58333 6.75 7.91912 6.75 8.33333C6.75 8.74755 7.08579 9.08333 7.5 9.08333V7.58333ZM8.33333 9.08333C8.74755 9.08333 9.08333 8.74755 9.08333 8.33333C9.08333 7.91912 8.74755 7.58333 8.33333 7.58333V9.08333ZM11.6667 7.58333C11.2525 7.58333 10.9167 7.91912 10.9167 8.33333C10.9167 8.74755 11.2525 9.08333 11.6667 9.08333V7.58333ZM12.5 9.08333C12.9142 9.08333 13.25 8.74755 13.25 8.33333C13.25 7.91912 12.9142 7.58333 12.5 7.58333V9.08333ZM11.6667 10.0833C11.2525 10.0833 10.9167 10.4191 10.9167 10.8333C10.9167 11.2475 11.2525 11.5833 11.6667 11.5833V10.0833ZM12.5 11.5833C12.9142 11.5833 13.25 11.2475 13.25 10.8333C13.25 10.4191 12.9142 10.0833 12.5 10.0833V11.5833ZM7.5 10.0833C7.08579 10.0833 6.75 10.4191 6.75 10.8333C6.75 11.2475 7.08579 11.5833 7.5 11.5833V10.0833ZM8.33333 11.5833C8.74755 11.5833 9.08333 11.2475 9.08333 10.8333C9.08333 10.4191 8.74755 10.0833 8.33333 10.0833V11.5833ZM11.6667 5.08333C11.2525 5.08333 10.9167 5.41912 10.9167 5.83333C10.9167 6.24755 11.2525 6.58333 11.6667 6.58333V5.08333ZM12.5 6.58333C12.9142 6.58333 13.25 6.24755 13.25 5.83333C13.25 5.41912 12.9142 5.08333 12.5 5.08333V6.58333ZM6.33333 3.25H13.6667V1.75H6.33333V3.25ZM14.25 3.83333V17.5H15.75V3.83333H14.25ZM15 16.75H5V18.25H15V16.75ZM5.75 17.5V3.83333H4.25V17.5H5.75ZM13.6667 3.25C13.9124 3.25 14.0516 3.25058 14.1529 3.25886C14.2455 3.26643 14.2387 3.27652 14.2045 3.25908L14.8855 1.92257C14.673 1.81431 14.4604 1.77899 14.2751 1.76384C14.0985 1.74942 13.8876 1.75 13.6667 1.75V3.25ZM15.75 3.83333C15.75 3.61235 15.7506 3.40151 15.7362 3.22493C15.721 3.03959 15.6857 2.827 15.5774 2.61451L14.2409 3.2955C14.2235 3.26128 14.2336 3.2545 14.2411 3.34708C14.2494 3.44841 14.25 3.5876 14.25 3.83333H15.75ZM14.2045 3.25908C14.2202 3.26707 14.2329 3.27982 14.2409 3.2955L15.5774 2.61451C15.4256 2.31659 15.1834 2.07437 14.8855 1.92257L14.2045 3.25908ZM6.33333 1.75C6.11235 1.75 5.90151 1.74942 5.72493 1.76384C5.53959 1.77899 5.327 1.81431 5.11451 1.92257L5.7955 3.25908C5.76128 3.27652 5.7545 3.26643 5.84708 3.25886C5.94841 3.25058 6.0876 3.25 6.33333 3.25V1.75ZM5.75 3.83333C5.75 3.5876 5.75058 3.44841 5.75886 3.34708C5.76643 3.2545 5.77652 3.26128 5.75908 3.2955L4.42257 2.61451C4.31431 2.827 4.27899 3.03959 4.26384 3.22493C4.24942 3.40151 4.25 3.61235 4.25 3.83333H5.75ZM5.11451 1.92257C4.81659 2.07437 4.57437 2.31659 4.42257 2.61451L5.75908 3.2955C5.76707 3.27982 5.77982 3.26707 5.7955 3.25908L5.11451 1.92257ZM7.5 6.58333H8.33333V5.08333H7.5V6.58333ZM7.5 9.08333H8.33333V7.58333H7.5V9.08333ZM11.6667 9.08333H12.5V7.58333H11.6667V9.08333ZM11.6667 11.5833H12.5V10.0833H11.6667V11.5833ZM7.5 11.5833H8.33333V10.0833H7.5V11.5833ZM11.6667 6.58333H12.5V5.08333H11.6667V6.58333ZM10.9167 15V17.5H12.4167V15H10.9167ZM9.08333 17.5V15H7.58333V17.5H9.08333ZM10 14.0833C10.5063 14.0833 10.9167 14.4937 10.9167 15H12.4167C12.4167 13.6653 11.3347 12.5833 10 12.5833V14.0833ZM10 12.5833C8.66531 12.5833 7.58333 13.6653 7.58333 15H9.08333C9.08333 14.4937 9.49374 14.0833 10 14.0833V12.5833Z" fill="#61646B"/>
</svg>
