<svg width="20" height="20" viewBox="0 0 20 20" fill="none" xmlns="http://www.w3.org/2000/svg">
<path opacity="0.14" d="M13.0833 3.33301C15.725 3.33301 17.5 5.81634 17.5 8.13301C17.5 12.8247 10.1333 16.6663 10 16.6663C9.86667 16.6663 2.5 12.8247 2.5 8.13301C2.5 5.81634 4.275 3.33301 6.91667 3.33301C8.43333 3.33301 9.425 4.09134 10 4.75801C10.575 4.09134 11.5667 3.33301 13.0833 3.33301Z" fill="#61646B"/>
<path d="M13.0833 3.33301C15.725 3.33301 17.5 5.81634 17.5 8.13301C17.5 12.8247 10.1333 16.6663 10 16.6663C9.86667 16.6663 2.5 12.8247 2.5 8.13301C2.5 5.81634 4.275 3.33301 6.91667 3.33301C8.43333 3.33301 9.425 4.09134 10 4.75801C10.575 4.09134 11.5667 3.33301 13.0833 3.33301Z" stroke="#61646B" stroke-width="1.5" stroke-linecap="round" stroke-linejoin="round"/>
</svg>
