<svg width="20" height="20" viewBox="0 0 20 20" fill="none" xmlns="http://www.w3.org/2000/svg">
<path opacity="0.14" d="M16.6666 9.99967C16.6666 13.6816 13.6819 16.6663 9.99998 16.6663C6.31808 16.6663 3.33331 13.6816 3.33331 9.99967C3.33331 6.31778 6.31808 3.33301 9.99998 3.33301C13.6819 3.33301 16.6666 6.31778 16.6666 9.99967Z" fill="#61646B"/>
<path d="M3.33331 9.99967C3.33331 13.6816 6.31808 16.6663 9.99998 16.6663C13.6819 16.6663 16.6666 13.6816 16.6666 9.99967C16.6666 6.31778 13.6819 3.33301 9.99998 3.33301C8.00883 3.33301 6.22155 4.20593 4.99998 5.58997C4.92994 5.66932 4.86176 5.75036 4.7955 5.83301M9.99998 6.66634V9.99967L12.0833 12.083M4.7949 3.33626V5.83626H7.2949" stroke="#61646B" stroke-width="1.5" stroke-linecap="round" stroke-linejoin="round"/>
</svg>
