<svg width="20" height="20" viewBox="0 0 20 20" fill="none" xmlns="http://www.w3.org/2000/svg">
<path opacity="0.14" d="M14.2963 3.3335H5.70368C4.87398 3.3335 4.45912 3.3335 4.14222 3.51515C3.86346 3.67494 3.63682 3.92991 3.49478 4.24351C3.33331 4.60003 3.33331 5.06674 3.33331 6.00016V8.3335H16.6666V6.00016C16.6666 5.06674 16.6666 4.60003 16.5052 4.24351C16.3631 3.92991 16.1365 3.67494 15.8577 3.51515C15.5408 3.3335 15.126 3.3335 14.2963 3.3335Z" fill="#61646B"/>
<path d="M16.6666 8.3335V6.00016C16.6666 5.06674 16.6666 4.60003 16.5052 4.24351C16.3631 3.92991 16.1365 3.67494 15.8577 3.51515C15.5408 3.3335 15.126 3.3335 14.2963 3.3335H5.70368C4.87398 3.3335 4.45912 3.3335 4.14222 3.51515C3.86346 3.67494 3.63682 3.92991 3.49478 4.24351C3.33331 4.60003 3.33331 5.06674 3.33331 6.00016V8.3335M5.28257 11.6668H5.29091M2.92499 16.6668C3.26818 15.6958 4.19422 15.0002 5.28273 15.0002C6.37125 15.0002 7.29728 15.6958 7.64048 16.6668M9.99927 11.6668H10.0076M7.64168 16.6668C7.98488 15.6958 8.91091 15.0002 9.99943 15.0002C11.0879 15.0002 12.014 15.6958 12.3572 16.6668M14.7159 11.6668H14.7242M12.3583 16.6668C12.7015 15.6958 13.6275 15.0002 14.716 15.0002C15.8045 15.0002 16.7306 15.6958 17.0738 16.6668M6.11591 11.6668C6.11591 12.1271 5.74281 12.5002 5.28257 12.5002C4.82234 12.5002 4.44924 12.1271 4.44924 11.6668C4.44924 11.2066 4.82234 10.8335 5.28257 10.8335C5.74281 10.8335 6.11591 11.2066 6.11591 11.6668ZM10.8326 11.6668C10.8326 12.1271 10.4595 12.5002 9.99927 12.5002C9.53903 12.5002 9.16593 12.1271 9.16593 11.6668C9.16593 11.2066 9.53903 10.8335 9.99927 10.8335C10.4595 10.8335 10.8326 11.2066 10.8326 11.6668ZM15.5492 11.6668C15.5492 12.1271 15.1761 12.5002 14.7159 12.5002C14.2556 12.5002 13.8825 12.1271 13.8825 11.6668C13.8825 11.2066 14.2556 10.8335 14.7159 10.8335C15.1761 10.8335 15.5492 11.2066 15.5492 11.6668Z" stroke="#61646B" stroke-width="1.5" stroke-linecap="round" stroke-linejoin="round"/>
</svg>
