<svg width="20" height="20" viewBox="0 0 20 20" fill="none" xmlns="http://www.w3.org/2000/svg">
<g opacity="0.14">
<path d="M6.66667 8.3335C8.04738 8.3335 9.16667 7.21421 9.16667 5.8335C9.16667 4.45278 8.04738 3.3335 6.66667 3.3335C5.28595 3.3335 4.16667 4.45278 4.16667 5.8335C4.16667 7.21421 5.28595 8.3335 6.66667 8.3335Z" fill="#61646B"/>
<path d="M2.5 15.0002C2.5 12.699 4.36548 10.8335 6.66667 10.8335C8.96785 10.8335 10.8333 12.699 10.8333 15.0002V16.6668H2.5V15.0002Z" fill="#61646B"/>
</g>
<path d="M10.8333 16.6668V15.0002C10.8333 12.699 8.96785 10.8335 6.66667 10.8335C4.36548 10.8335 2.5 12.699 2.5 15.0002V16.6668H10.8333ZM10.8333 16.6668H17.5V15.8335C17.5 13.3789 15.6345 11.6668 13.3333 11.6668C12.1556 11.6668 11.0919 12.1881 10.3341 13.0261M9.16667 5.8335C9.16667 7.21421 8.04738 8.3335 6.66667 8.3335C5.28595 8.3335 4.16667 7.21421 4.16667 5.8335C4.16667 4.45278 5.28595 3.3335 6.66667 3.3335C8.04738 3.3335 9.16667 4.45278 9.16667 5.8335ZM15 7.50016C15 8.42064 14.2538 9.16683 13.3333 9.16683C12.4129 9.16683 11.6667 8.42064 11.6667 7.50016C11.6667 6.57969 12.4129 5.8335 13.3333 5.8335C14.2538 5.8335 15 6.57969 15 7.50016Z" stroke="#61646B" stroke-width="1.5" stroke-linecap="round" stroke-linejoin="round"/>
</svg>
