<svg width="20" height="20" viewBox="0 0 20 20" fill="none" xmlns="http://www.w3.org/2000/svg">
<path opacity="0.14" d="M5.16667 16.667H14.8333C15.7668 16.667 16.2335 16.667 16.59 16.4853C16.9036 16.3255 17.1586 16.0706 17.3183 15.757C17.5 15.4005 17.5 14.9337 17.5 14.0003C17.5 13.6321 17.2015 13.3337 16.8333 13.3337H15.8333C14.9129 13.3337 14.1667 12.5875 14.1667 11.667C14.1667 10.7465 14.9129 10.0003 15.8333 10.0003H16.8333C17.2015 10.0003 17.5 9.70185 17.5 9.33366C17.5 8.40024 17.5 7.93353 17.3183 7.57701C17.1586 7.2634 16.9036 7.00844 16.59 6.84865C16.2335 6.66699 15.7668 6.66699 14.8333 6.66699H2.5V14.0003C2.5 14.9337 2.5 15.4005 2.68166 15.757C2.84144 16.0706 3.09641 16.3255 3.41002 16.4853C3.76654 16.667 4.23325 16.667 5.16667 16.667Z" fill="#61646B"/>
<path d="M15 6.66634V5.99967C15 5.06625 15 4.59954 14.8183 4.24302C14.6586 3.92942 14.4036 3.67445 14.09 3.51466C13.7335 3.33301 13.2668 3.33301 12.3333 3.33301H5.16667C4.23325 3.33301 3.76654 3.33301 3.41002 3.51466C3.09641 3.67445 2.84144 3.92942 2.68166 4.24302C2.5 4.59954 2.5 5.06625 2.5 5.99967V6.66634M17.5 9.99967H15.8333C14.9129 9.99967 14.1667 10.7459 14.1667 11.6663C14.1667 12.5868 14.9129 13.333 15.8333 13.333H17.5M2.5 6.66634V13.9997C2.5 14.9331 2.5 15.3998 2.68166 15.7563C2.84144 16.0699 3.09641 16.3249 3.41002 16.4847C3.76654 16.6663 4.23325 16.6663 5.16667 16.6663H14.8333C15.7668 16.6663 16.2335 16.6663 16.59 16.4847C16.9036 16.3249 17.1586 16.0699 17.3183 15.7563C17.5 15.3998 17.5 14.9331 17.5 13.9997V9.33301C17.5 8.39959 17.5 7.93288 17.3183 7.57636C17.1586 7.26275 16.9036 7.00779 16.59 6.848C16.2335 6.66634 15.7668 6.66634 14.8333 6.66634H2.5Z" stroke="#61646B" stroke-width="1.5" stroke-linecap="round" stroke-linejoin="round"/>
</svg>
